<svg xmlns="http://www.w3.org/2000/svg" width="107" height="236" viewBox="0 0 107 236">
    <g fill="none" fill-rule="evenodd" opacity=".16">
        <path fill="#FFF" d="M-36.152 227.915l-621.847-289.43c-36.731-17.096-59.517-54.666-57.702-95.14l15.155-337.993c2.474-55.173 49.207-97.894 104.38-95.42a100 100 0 0 1 66.046 29.005L48.041 14.094a100 100 0 0 1 29.37 75.438l-3.253 71.528C72.21 203.89 35.91 237.033-6.92 235.085a77.632 77.632 0 0 1-29.231-7.17z"/>
        <path stroke="#FFF" stroke-width="2" d="M-6.717 214.34L-622.775-72.403c-36.73-17.097-59.516-54.665-57.702-95.139l14.91-332.631c2.473-55.173 49.205-97.895 104.378-95.422a100 100 0 0 1 66.048 29.005L76.491 2.072a100 100 0 0 1 29.37 75.437l-3.207 70.545c-1.931 42.466-37.922 75.326-80.387 73.395a76.97 76.97 0 0 1-28.984-7.109z" opacity=".491"/>
    </g>
</svg>
