<svg width="13" height="19" viewBox="0 0 13 19" fill="none" xmlns="http://www.w3.org/2000/svg">
<path d="M12.4318 7.4375H11.8636C11.5497 7.4375 11.2955 7.69621 11.2955 8.01562V9.75C11.2955 12.4527 9.00533 14.6214 6.29581 14.3526C3.9343 14.1181 2.20455 11.9581 2.20455 9.54404V8.01562C2.20455 7.69621 1.95028 7.4375 1.63636 7.4375H1.06818C0.754261 7.4375 0.5 7.69621 0.5 8.01562V9.46672C0.5 12.7057 2.77166 15.593 5.89773 16.0317V17.2656H3.90909C3.59517 17.2656 3.34091 17.5243 3.34091 17.8438V18.4219C3.34091 18.7413 3.59517 19 3.90909 19H9.59091C9.90483 19 10.1591 18.7413 10.1591 18.4219V17.8438C10.1591 17.5243 9.90483 17.2656 9.59091 17.2656H7.60227V16.0454C10.646 15.6205 13 12.9622 13 9.75V8.01562C13 7.69621 12.7457 7.4375 12.4318 7.4375ZM6.75 13.2188C8.63281 13.2188 10.1591 11.6658 10.1591 9.75H7.12891C6.91974 9.75 6.75 9.62064 6.75 9.46094V8.88281C6.75 8.72311 6.91974 8.59375 7.12891 8.59375H10.1591V7.4375H7.12891C6.91974 7.4375 6.75 7.30814 6.75 7.14844V6.57031C6.75 6.41061 6.91974 6.28125 7.12891 6.28125H10.1591V5.125H7.12891C6.91974 5.125 6.75 4.99564 6.75 4.83594V4.25781C6.75 4.09811 6.91974 3.96875 7.12891 3.96875H10.1591C10.1591 2.05299 8.63281 0.5 6.75 0.5C4.86719 0.5 3.34091 2.05299 3.34091 3.96875V9.75C3.34091 11.6658 4.86719 13.2188 6.75 13.2188Z" fill="white"/>
</svg>
