<svg width="24" height="24" viewBox="0 0 24 24" fill="none" xmlns="http://www.w3.org/2000/svg">
<path d="M18.0003 2C17.5343 2 17.1313 2.322 17.0253 2.775L16.0513 7H3.00031C2.69131 7 2.40131 7.142 2.21231 7.385C2.02331 7.627 1.95531 7.945 2.02931 8.243L4.0293 16.243C4.1413 16.688 4.54131 17 5.00031 17H15.0003C15.4663 17 15.8693 16.679 15.9753 16.225L18.7953 4H22.0003V2H18.0003ZM14.2053 15H5.78131L4.28131 9H15.5893L14.2053 15Z" fill="black"/>
<path d="M7.41422 18.5858C8.19527 19.3668 8.19527 20.6332 7.41422 21.4142C6.63317 22.1953 5.36684 22.1953 4.58579 21.4142C3.80474 20.6332 3.80474 19.3668 4.58579 18.5858C5.36684 17.8047 6.63317 17.8047 7.41422 18.5858Z" fill="black"/>
<path d="M15.4142 18.5858C16.1953 19.3668 16.1953 20.6332 15.4142 21.4142C14.6332 22.1953 13.3668 22.1953 12.5858 21.4142C11.8047 20.6332 11.8047 19.3668 12.5858 18.5858C13.3668 17.8047 14.6332 17.8047 15.4142 18.5858Z" fill="black"/>
</svg>
