<svg width="68" height="16" viewBox="0 0 68 16" fill="none" xmlns="http://www.w3.org/2000/svg">
<ellipse cx="2.66667" cy="2.66667" rx="2.66667" ry="2.66667" fill="#FB8842"/>
<path d="M8 4.2666L0 12.215L3.80952 15.9999L8 11.8365L12.1905 15.9999L16 12.215L8 4.2666Z" fill="#FB8842"/>
<path d="M0 12.2151L12.2666 0L16 3.86127L3.80952 16L0 12.2151Z" fill="#FB8842"/>
<path fill-rule="evenodd" clip-rule="evenodd" d="M43.4771 13.3332C41.238 13.3332 38.8286 11.5389 38.8286 8.02649C38.8286 4.67118 41.2426 2.6665 43.5139 2.6665C44.9648 2.6665 46.0738 3.2537 46.5555 3.56163C46.7003 3.65392 46.7276 3.84687 46.6172 3.97577L46.2388 4.41537C46.1441 4.52517 45.9796 4.55183 45.8543 4.47465C45.4743 4.24072 44.6117 3.79873 43.5139 3.79873C42.1051 3.79873 40.0091 5.06702 40.0091 8.02649C40.0091 10.9645 41.8773 12.2013 43.4771 12.2013C44.7221 12.2013 45.6752 11.7749 46.0871 11.5529C46.2173 11.4825 46.3815 11.5199 46.4687 11.6368L46.8127 12.0991C46.914 12.2348 46.8727 12.4245 46.7226 12.5077C46.2123 12.7893 45.0273 13.3332 43.4771 13.3332Z" fill="#1D1E1C"/>
<path fill-rule="evenodd" clip-rule="evenodd" d="M48.1848 7.35141H55.0985C54.7993 4.45094 53.0905 3.81963 51.6607 3.81963C50.3461 3.81963 48.4336 4.77268 48.1848 7.35141ZM51.6243 13.3332C49.3865 13.3332 46.978 11.5053 46.978 7.92771C46.978 4.5106 49.3906 2.6665 51.661 2.6665C53.0078 2.6665 56.1581 3.17747 56.3184 7.90867C56.3234 8.06508 56.2639 8.21622 56.1527 8.32886C56.0415 8.44111 55.8886 8.50432 55.7287 8.50432H48.1827C48.4067 11.0389 50.132 12.1804 51.6243 12.1804C52.869 12.1804 53.8219 11.7456 54.2327 11.5195C54.3633 11.4477 54.527 11.4862 54.6142 11.6054L54.9584 12.0762C55.0592 12.214 55.0179 12.4077 54.8679 12.4924C54.3579 12.7793 53.1736 13.3332 51.6243 13.3332Z" fill="#1D1E1C"/>
<path fill-rule="evenodd" clip-rule="evenodd" d="M36.4024 2.6665H34.0295C33.9179 2.6665 33.8262 2.76119 33.8262 2.87677V3.62685C33.8262 3.74243 33.9179 3.83712 34.0295 3.83712H35.5552L35.5556 13.0413C35.5556 13.202 35.6826 13.3332 35.8376 13.3332H36.4024C36.5578 13.3332 36.6847 13.202 36.6847 13.0413L36.6843 2.95793C36.6843 2.79766 36.5578 2.6665 36.4024 2.6665Z" fill="#1D1E1C"/>
<path fill-rule="evenodd" clip-rule="evenodd" d="M28.5693 2.92437C27.3974 2.92437 26.117 3.29497 25.2104 4.2022V2.95798C25.2104 2.79728 25.074 2.6665 24.9078 2.6665H24.3026C24.1365 2.6665 24 2.79728 24 2.95798V13.0417C24 13.202 24.1365 13.3332 24.3026 13.3332H24.9078C25.074 13.3332 25.2104 13.202 25.2104 13.0417V7.49047C25.2104 4.33585 27.7814 4.09069 28.5693 4.09069C29.3974 4.09069 31.3233 4.42194 31.3233 7.49047V9.10734C31.3233 9.10775 31.3233 9.10816 31.3233 9.10857V11.2846V13.0417C31.3233 13.202 31.4594 13.3332 31.6259 13.3332H32.2307C32.3973 13.3332 32.5333 13.202 32.5333 13.0417V11.2846V11.1821V7.49047C32.5333 3.14451 29.2313 2.92437 28.5693 2.92437Z" fill="#1D1E1C"/>
<path d="M64.6155 13.3334C64.4265 13.3334 64.254 13.2266 64.1672 13.0588C63.906 12.5537 63.6226 12.045 63.3171 11.5325C63.0662 11.092 62.7862 10.6462 62.4772 10.1951C62.2896 9.92132 61.8942 9.91682 61.7028 10.188C61.6505 10.2622 61.5956 10.3409 61.5379 10.4243C61.3213 10.7527 61.0996 11.1016 60.8727 11.471C60.6561 11.8404 60.4498 12.1944 60.2539 12.533C60.1396 12.7304 60.0429 12.9035 59.9637 13.052C59.873 13.2222 59.6978 13.3334 59.505 13.3334H57.9096C57.5299 13.3334 57.2899 12.9276 57.4803 12.5992C57.8322 11.9924 58.2204 11.3649 58.6449 10.7168C59.1973 9.8878 59.8049 9.01233 60.4677 8.09036C60.5899 7.92032 60.5941 7.69217 60.4774 7.51828L57.7441 3.44537C57.5212 3.11319 57.7593 2.66675 58.1593 2.66675H59.8692C60.0412 2.66675 60.2011 2.75514 60.2926 2.90078L61.806 5.30985C62.0031 5.62374 62.4614 5.62144 62.6554 5.30557L64.1299 2.90505C64.2208 2.75698 64.3821 2.66675 64.5559 2.66675H66.1024C66.5004 2.66675 66.7389 3.10915 66.5201 3.44162L63.8229 7.53994C63.7054 7.7185 63.7147 7.95191 63.8444 8.12185C64.6154 9.13252 65.2699 10.0745 65.8079 10.9477C66.1919 11.5644 66.5232 12.1177 66.8016 12.6074C66.9876 12.9345 66.7482 13.3334 66.3719 13.3334H64.6155Z" fill="#1D1E1C"/>
</svg>
