<svg width="51" height="12" viewBox="0 0 51 12" fill="none" xmlns="http://www.w3.org/2000/svg">
<ellipse cx="2" cy="2" rx="2" ry="2" fill="#FB8842"/>
<path d="M6 3.19995L0 9.16124L2.85714 12L6 8.87737L9.14286 12L12 9.16124L6 3.19995Z" fill="#FB8842"/>
<path d="M0 9.16132L9.19998 0L12 2.89596L2.85714 12L0 9.16132Z" fill="#FB8842"/>
<g clip-path="url(#clip0_6_3150)">
<path fill-rule="evenodd" clip-rule="evenodd" d="M32.6075 10C30.9282 10 29.1211 8.65433 29.1211 6.01999C29.1211 3.50351 30.9316 2 32.6351 2C33.7233 2 34.555 2.4404 34.9163 2.67134C35.0248 2.74056 35.0453 2.88528 34.9625 2.98195L34.6787 3.31165C34.6077 3.394 34.4843 3.41399 34.3903 3.35611C34.1053 3.18067 33.4584 2.84917 32.6351 2.84917C31.5785 2.84917 30.0065 3.80039 30.0065 6.01999C30.0065 8.22348 31.4076 9.15113 32.6075 9.15113C33.5412 9.15113 34.256 8.83127 34.5649 8.66478C34.6626 8.61196 34.7857 8.64001 34.8512 8.72773L35.1092 9.07444C35.1852 9.17619 35.1542 9.31851 35.0416 9.38087C34.6589 9.59212 33.7701 10 32.6075 10Z" fill="white"/>
<path fill-rule="evenodd" clip-rule="evenodd" d="M36.1385 5.51368H41.3238C41.0994 3.33833 39.8178 2.86484 38.7454 2.86484C37.7595 2.86484 36.3251 3.57963 36.1385 5.51368ZM38.7181 10C37.0397 10 35.2334 8.62908 35.2334 5.9459C35.2334 3.38307 37.0428 2 38.7457 2C39.7558 2 42.1184 2.38322 42.2387 5.93162C42.2424 6.04893 42.1978 6.16229 42.1144 6.24677C42.031 6.33095 41.9164 6.37836 41.7964 6.37836H36.1369C36.3049 8.27929 37.5989 9.13539 38.7181 9.13539C39.6516 9.13539 40.3663 8.8093 40.6744 8.63972C40.7724 8.58593 40.8951 8.6148 40.9605 8.70415L41.2187 9.05729C41.2943 9.16061 41.2633 9.30588 41.1508 9.3694C40.7683 9.58456 39.88 10 38.7181 10Z" fill="white"/>
<path fill-rule="evenodd" clip-rule="evenodd" d="M27.3013 2H25.5216C25.438 2 25.3691 2.07101 25.3691 2.1577V2.72026C25.3691 2.80695 25.438 2.87796 25.5216 2.87796H26.6659L26.6662 9.78112C26.6662 9.90163 26.7614 10 26.8777 10H27.3013C27.4178 10 27.5131 9.90163 27.5131 9.78112L27.5128 2.21857C27.5128 2.09837 27.4178 2 27.3013 2Z" fill="white"/>
<path fill-rule="evenodd" clip-rule="evenodd" d="M21.427 2.1934C20.548 2.1934 19.5878 2.47135 18.9078 3.15177V2.21861C18.9078 2.09808 18.8055 2 18.6809 2H18.227C18.1024 2 18 2.09808 18 2.21861V9.78139C18 9.90161 18.1024 10 18.227 10H18.6809C18.8055 10 18.9078 9.90161 18.9078 9.78139V5.61797C18.9078 3.25201 20.836 3.06814 21.427 3.06814C22.0481 3.06814 23.4925 3.31658 23.4925 5.61797V6.83062C23.4925 6.83093 23.4925 6.83124 23.4925 6.83155V8.46358V9.78139C23.4925 9.90161 23.5945 10 23.7194 10H24.173C24.298 10 24.4 9.90161 24.4 9.78139V8.46358V8.38672V5.61797C24.4 2.35851 21.9235 2.1934 21.427 2.1934Z" fill="white"/>
<path d="M48.5383 10C48.3493 10 48.1769 9.89318 48.0895 9.72561C47.9035 9.36929 47.7028 9.01054 47.4874 8.64935C47.3247 8.36362 47.1457 8.07494 46.9503 7.78331C46.7656 7.50753 46.3712 7.50387 46.1819 7.77656C46.1724 7.79026 46.1628 7.80413 46.1531 7.81818C45.9906 8.06445 45.8243 8.32612 45.6542 8.60317C45.4917 8.88023 45.337 9.14574 45.19 9.39971C45.1216 9.51798 45.0615 9.62456 45.0099 9.71946C44.9177 9.88885 44.7423 10 44.5494 10H43.6425C43.2629 10 43.0233 9.59443 43.2163 9.26753C43.4514 8.86919 43.7071 8.45919 43.9833 8.03752C44.3834 7.43704 44.8222 6.80403 45.2996 6.13848C45.4216 5.96831 45.4258 5.74019 45.3091 5.5663L43.4383 2.77862C43.2154 2.44644 43.4535 2 43.8535 2H44.8324C45.0044 2 45.1643 2.08839 45.2558 2.23403L46.2471 3.81193C46.4443 4.12583 46.9025 4.12352 47.0965 3.80765L48.0605 2.23831C48.1514 2.09023 48.3127 2 48.4865 2H49.3446C49.7426 2 49.981 2.44241 49.7622 2.77487L47.916 5.58026C47.7985 5.75882 47.8078 5.99217 47.937 6.16244C48.4919 6.89355 48.9647 7.5763 49.3555 8.21068C49.5976 8.59941 49.8117 8.9545 49.9978 9.27596C50.1864 9.6016 49.9478 10 49.5715 10H48.5383Z" fill="white"/>
</g>
<defs>
<clipPath id="clip0_6_3150">
<rect width="32.4" height="12" fill="white" transform="translate(18)"/>
</clipPath>
</defs>
</svg>
