<svg height="300pt" preserveAspectRatio="xMidYMid meet" viewBox="0 0 300 300" width="300pt" xmlns="http://www.w3.org/2000/svg"><g transform="matrix(.1 0 0 -.1 0 300)"><path d="m628 2695c-2-2-15-6-29-8-80-15-182-90-235-172-140-220-33-517 215-594 203-64 415 37 492 234 20 50 21 57 24 139 6 185-113 344-295 394-34 9-164 14-172 7z"/><path d="m1500 2300v-400h600 600v400 400h-600-600z"/><path d="m304 1413c22-287 133-534 330-741 162-170 359-282 601-342 136-34 405-34 540 1 91 23 175 54 260 96 377 186 633 570 661 989l6 84h-401-401l-1-22c-3-78-47-184-101-244-80-89-208-140-328-131-186 14-332 147-362 333l-11 64h-400-400z"/></g></svg>